<?xml version="1.0" encoding="UTF-8"?>
<svg id="Camada_2" data-name="Camada 2" xmlns="http://www.w3.org/2000/svg" viewBox="0 0 1778.3 459.56">
  <defs>
    <style>
      .cls-1 {
        fill: #fff;
      }

      .cls-2 {
        fill: #a9f8c8;
      }
    </style>
  </defs>
  <g id="Camada_1-2" data-name="Camada 1">
    <g>
      <path class="cls-1" d="M459.56,229.78c0,19.55-2.44,38.53-7.04,56.66-25.23,99.5-115.39,173.12-222.74,173.12-48.1,0-92.76-14.78-129.66-40.05C40.79,378.88,1.47,311.14.04,234.14-2.38,104.34,104.35-2.38,234.14.04c72.25,1.35,136.33,36.04,177.53,89.32,4.63,5.99,4.09,14.5-1.26,19.85l-41.41,41.41c-6.66,6.66-17.64,5.58-23.04-2.13-25.2-35.94-66.64-59.66-113.67-60.47-79.81-1.39-145.65,64.45-144.27,144.27.93,53.56,31.56,99.88,76.12,123.2,19.63,10.26,41.96,16.07,65.64,16.07,48.5,0,91.31-24.35,116.87-61.49,6.89-10-.22-23.63-12.36-23.63h-64.78c-13.4,0-20.12-16.21-10.64-25.68l56.72-56.72c2.82-2.82,6.65-4.41,10.64-4.41h117.75c7.88,0,14.46,6.07,15.01,13.93.38,5.36.57,10.76.57,16.22Z"/>
      <circle class="cls-2" cx="1744.83" cy="426.09" r="33.47"/>
      <g>
        <path class="cls-1" d="M486.02,233.96c0-28.26,15.93-43.68,44.19-43.17l150.85,3.65c10.71.26,19.25,9.01,19.25,19.72v32.5c0,11.08-9.12,19.98-20.19,19.72l-91.69-2.14c-11.07-.26-20.19,8.65-20.19,19.72v150.73c0,10.89-8.83,19.73-19.73,19.73h-42.77c-10.89,0-19.73-8.83-19.73-19.73v-200.73Z"/>
        <path class="cls-1" d="M819.53,301.8l77.8-10.76c2.31-.32,3.94-2.43,3.68-4.74-2.1-18.57-18.63-29.72-51.67-29.72-26.49,0-43.65,9-49.32,24.86-2.67,7.48-9.52,12.65-17.46,12.65h-40.95c-11.93,0-20.92-11.01-18.35-22.66,11.4-51.88,62.39-81.66,126.08-81.66,71.43,0,134.12,34.43,134.12,119.73v54.21c0,10.36,8.4,18.76,18.76,18.76h0c10.36,0,18.76,8.4,18.76,18.76v34.43c0,10.36-8.4,18.76-18.76,18.76h-34c-23.65,0-42.82-19.17-42.82-42.82h0c0-.57.11-1.13.33-1.65l10.05-24.11c1.18-2.82-.9-5.93-3.95-5.93h-10.73c-1.96,0-3.69,1.32-4.16,3.22-10.29,41.74-35.99,76.43-106.64,76.43-80.68,0-94.55-49.33-94.55-76.05,0-44.71,26.72-70.92,103.8-81.71ZM826.21,387.62c42.61,0,71.53-16.88,74.73-45.48.31-2.76-2.11-5.06-4.86-4.67l-61.14,8.53c-24.67,3.6-37,7.19-37,22.1s14.39,19.53,28.26,19.53Z"/>
        <path class="cls-1" d="M1134.02,358.32v76.42c0,10.86-8.81,19.67-19.67,19.67h-42.88c-10.86,0-19.67-8.81-19.67-19.67v-220.17c0-10.86,8.81-19.67,19.67-19.67h42.88c10.86,0,19.67,8.81,19.67,19.67v10.98c0,.46-.07.92-.22,1.35l-13.32,39.95c-.92,2.77,1.14,5.64,4.06,5.64h11.22c1.99,0,3.69-1.37,4.17-3.3,11.07-44.67,43.21-79.43,97.38-79.43,66.29,0,106.37,44.19,106.37,124.36v120.62c0,10.86-8.81,19.67-19.67,19.67h-42.88c-10.86,0-19.67-8.81-19.67-19.67v-107.77c0-47.28-13.88-65.26-53.44-65.26-44.71,0-74,23.64-74,96.61Z"/>
        <path class="cls-1" d="M1483.47,301.8l77.8-10.76c2.31-.32,3.94-2.43,3.68-4.74-2.1-18.57-18.63-29.72-51.67-29.72-26.49,0-43.65,9-49.32,24.86-2.67,7.48-9.52,12.65-17.46,12.65h-40.95c-11.93,0-20.91-11.01-18.35-22.66,11.4-51.88,62.39-81.66,126.08-81.66,71.43,0,134.12,34.43,134.12,119.73v54.22c0,10.36,8.4,18.76,18.76,18.76h0c10.36,0,18.76,8.4,18.76,18.76v34.43c0,10.36-8.4,18.76-18.76,18.76h-34c-23.65,0-42.82-19.17-42.82-42.82h0c0-.57.11-1.13.33-1.65l10.05-24.11c1.18-2.82-.9-5.93-3.95-5.93h-10.73c-1.96,0-3.69,1.32-4.16,3.22-10.29,41.74-35.99,76.43-106.64,76.43-80.68,0-94.56-49.33-94.56-76.05,0-44.71,26.72-70.92,103.81-81.71ZM1490.15,387.62c42.61,0,71.53-16.88,74.73-45.48.31-2.76-2.11-5.06-4.86-4.67l-61.14,8.53c-24.67,3.6-37,7.19-37,22.1s14.39,19.53,28.26,19.53Z"/>
      </g>
    </g>
  </g>
</svg>